<?xml version="1.0" encoding="UTF-8"?>
<svg width="1024" height="1024" version="1.1" viewBox="0 0 1024 1024" xmlns="http://www.w3.org/2000/svg">
 <rect x="-.061383" y="-.054233" width="1024.1" height="1024.1" stroke-linecap="square" stroke-width=".89197"/>
 <path d="m595.31 1139.4c71.034-5.8121 143.16-18.012 202.11-34.188 34.074-9.3498 32.929-8.8304 33.922-15.378 15.077-99.424 28.457-157.29 47.619-205.96 12.435-31.582 34.165-78.064 26.998-57.751-2.5635 7.2659-9.7966 47.923-14.463 81.3-5.6975 40.747-20.122 174.49-18.947 175.67 5.5619 5.5617 160.44-66.14 159.84-73.997-5.4751-71.437-23.386-170.8-38.132-211.53-20.63-56.99-56.311-90.593-141.34-133.11-43.582-21.791-47.491-22.825-54.615-14.449-23.325 27.422-61.579 56.94-117.28 90.499-26.483 15.956-26.483 15.956-26.85 119.09-0.36635 103.14-0.36635 103.14 3.0707 106.32 6.0564 5.6128 6.9057 45.63 1.2232 57.633-5.416 11.441-38.216 12.579-43.932 1.5245-4.5511-8.8007-2.8835-53.583 2.1842-58.65 3.9028-3.9028 7.3563-192.45 3.5249-192.45-0.41602 0-4.7511 1.6966-9.6335 3.7701-4.8822 2.0736-21.721 8.1057-37.42 13.405-35.686 12.046-42.022 14.897-53.322 24-19.754 15.912-18.268 15.879-38.126 0.85601-15.334-11.6-20.357-13.917-54.239-25.018-14.469-4.7408-30.887-10.508-36.484-12.816-5.5972-2.3081-10.41-4.1966-10.694-4.1966-3.5608 0-0.0142 188.67 3.6186 192.3 6.783 6.783 7.9885 45.316 1.805 57.694-6.3067 12.625-39.323 12.109-44.684-0.6986-5.3626-12.811-2.0096-56.708 4.489-58.771 3.0273-0.96083 4.6937-207.66 1.6742-207.66-1.9915 0-51.907-30.49-69.76-42.611-29.095-19.754-61.952-47.939-77.29-66.299-4.5444-5.4398-4.5444-5.4398-21.28 1.9485-135.57 59.848-169.33 99.913-193.57 229.7-5.691 30.467-17.973 121.08-17.973 132.6 0 3.0712 80.524 40.775 119.17 55.798 38.624 15.015 42.102 16.064 42.102 12.691 0-3.9554-9.1815-88.788-14.349-132.58-5.6482-47.865-14.733-106.86-18.447-119.79-1.489-5.1839-0.76983-8.109 0.86286-3.51 0.52749 1.486 5.6053 13.299 11.284 26.25 28.695 65.447 42.493 116.47 57.102 211.16 5.6388 36.546 4.0833 33.176 17.066 36.98 77.254 22.634 167.37 37.058 263.31 42.146 19.296 1.0233 131.4-0.4218 149.85-1.9317zm9.9903-376.16c203.81-121.14 269.06-216.54 236.19-345.34-63.284-247.95-178.76-418.83-312.54-462.48-63.062-20.579-169.48 45.306-237.58 147.08-59.446 88.851-128.06 260.37-141.96 354.84-12.872 87.502 52.553 181.16 188.66 270.08 50.412 32.935 128.49 77.228 118.09 66.992-16.727-16.463-55.876-53.888-106.32-89.581-135.38-95.781-206.97-265.42-119.19-379.46 73.675-95.708 219.43-99.163 259.76 71.427 47.522-169.34 196.34-171.18 268.12-75.01 93.401 125.15 37.145 251.76-93.3 371.65-63.013 57.917-84.17 67.135-116.3 96.772-9.6126 8.8667 19.547-5.0852 56.374-26.972z" fill="#f2f2f2" stroke-width="1.4272"/>
</svg>
